<svg xmlns="http://www.w3.org/2000/svg" xmlns:xlink="http://www.w3.org/1999/xlink" width="276" zoomAndPan="magnify" viewBox="0 0 206.87999 193.499995" height="258" preserveAspectRatio="xMidYMid meet" version="1.0"><defs><g/><clipPath id="336693ff81"><path d="M 7.652344 0.714844 L 199.226562 0.714844 L 199.226562 192.289062 L 7.652344 192.289062 Z M 7.652344 0.714844 " clip-rule="nonzero"/></clipPath><clipPath id="cc903f458c"><path d="M 103.441406 0.714844 C 50.539062 0.714844 7.652344 43.597656 7.652344 96.5 C 7.652344 149.402344 50.539062 192.289062 103.441406 192.289062 C 156.339844 192.289062 199.226562 149.402344 199.226562 96.5 C 199.226562 43.597656 156.339844 0.714844 103.441406 0.714844 Z M 103.441406 0.714844 " clip-rule="nonzero"/></clipPath></defs><g clip-path="url(#336693ff81)"><g clip-path="url(#cc903f458c)"><path fill="#000000" d="M 7.652344 0.714844 L 199.226562 0.714844 L 199.226562 192.289062 L 7.652344 192.289062 Z M 7.652344 0.714844 " fill-opacity="1" fill-rule="nonzero"/></g></g><g fill="#ffffff" fill-opacity="1"><g transform="translate(26.656689, 136.319388)"><g><path d="M 31.46875 10.828125 C 25.59375 10.828125 21.210938 9.445312 18.328125 6.6875 C 15.441406 3.925781 14 -0.320312 14 -6.0625 L 14 -22.609375 C 14 -24.953125 13.503906 -26.613281 12.515625 -27.59375 C 11.535156 -28.582031 9.867188 -29.078125 7.515625 -29.078125 L 4.09375 -29.078125 L 4.09375 -40.234375 L 7.515625 -40.234375 C 9.867188 -40.234375 11.535156 -40.722656 12.515625 -41.703125 C 13.503906 -42.691406 14 -44.359375 14 -46.703125 L 14 -63.25 C 14 -68.988281 15.441406 -73.238281 18.328125 -76 C 21.210938 -78.757812 25.59375 -80.140625 31.46875 -80.140625 L 38.203125 -80.140625 L 38.203125 -69.203125 L 34.109375 -69.203125 C 31.898438 -69.203125 30.289062 -68.691406 29.28125 -67.671875 C 28.28125 -66.660156 27.78125 -64.941406 27.78125 -62.515625 L 27.78125 -48.578125 C 27.78125 -44.671875 27.082031 -41.695312 25.6875 -39.65625 C 24.289062 -37.613281 22.125 -36.128906 19.1875 -35.203125 L 19.1875 -34.109375 C 22.125 -33.179688 24.289062 -31.695312 25.6875 -29.65625 C 27.082031 -27.613281 27.78125 -24.640625 27.78125 -20.734375 L 27.78125 -6.796875 C 27.78125 -4.367188 28.28125 -2.644531 29.28125 -1.625 C 30.289062 -0.613281 31.898438 -0.109375 34.109375 -0.109375 L 38.203125 -0.109375 L 38.203125 10.828125 Z M 31.46875 10.828125 "/></g></g></g><g fill="#ffffff" fill-opacity="1"><g transform="translate(68.026819, 136.319388)"><g><path d="M 9.84375 0 L 9.84375 -75.796875 L 40.28125 -75.796875 C 48.125 -75.796875 54.039062 -73.988281 58.03125 -70.375 C 62.03125 -66.757812 64.03125 -61.773438 64.03125 -55.421875 C 64.03125 -50.828125 62.863281 -47.054688 60.53125 -44.109375 C 58.195312 -41.171875 54.710938 -38.925781 50.078125 -37.375 L 50.078125 -36.296875 C 52.460938 -35.253906 54.390625 -33.710938 55.859375 -31.671875 C 57.328125 -29.628906 58.71875 -26.609375 60.03125 -22.609375 L 67.609375 0 L 52.203125 0 L 44.796875 -22.65625 C 44.035156 -24.9375 43.175781 -26.707031 42.21875 -27.96875 C 41.269531 -29.226562 40.0625 -30.144531 38.59375 -30.71875 C 37.125 -31.289062 35.21875 -31.578125 32.875 -31.578125 L 24.828125 -31.578125 L 24.828125 0 Z M 38.46875 -43.4375 C 45.726562 -43.4375 49.359375 -46.828125 49.359375 -53.609375 C 49.359375 -60.484375 45.726562 -63.921875 38.46875 -63.921875 L 24.828125 -63.921875 L 24.828125 -43.4375 Z M 38.46875 -43.4375 "/></g></g></g><g fill="#ffffff" fill-opacity="1"><g transform="translate(138.895214, 136.319388)"><g><path d="M 3.15625 10.828125 L 3.15625 -0.109375 L 7.265625 -0.109375 C 9.441406 -0.109375 11.03125 -0.613281 12.03125 -1.625 C 13.03125 -2.644531 13.53125 -4.367188 13.53125 -6.796875 L 13.53125 -20.734375 C 13.53125 -24.640625 14.238281 -27.601562 15.65625 -29.625 C 17.070312 -31.644531 19.25 -33.140625 22.1875 -34.109375 L 22.1875 -35.203125 C 19.25 -36.171875 17.070312 -37.664062 15.65625 -39.6875 C 14.238281 -41.707031 13.53125 -44.671875 13.53125 -48.578125 L 13.53125 -62.515625 C 13.53125 -64.941406 13.03125 -66.660156 12.03125 -67.671875 C 11.03125 -68.691406 9.441406 -69.203125 7.265625 -69.203125 L 3.15625 -69.203125 L 3.15625 -80.140625 L 9.90625 -80.140625 C 15.78125 -80.140625 20.160156 -78.757812 23.046875 -76 C 25.929688 -73.238281 27.375 -68.988281 27.375 -63.25 L 27.375 -46.703125 C 27.375 -44.359375 27.863281 -42.691406 28.84375 -41.703125 C 29.832031 -40.722656 31.503906 -40.234375 33.859375 -40.234375 L 37.21875 -40.234375 L 37.21875 -29.078125 L 33.859375 -29.078125 C 31.503906 -29.078125 29.832031 -28.582031 28.84375 -27.59375 C 27.863281 -26.613281 27.375 -24.953125 27.375 -22.609375 L 27.375 -6.0625 C 27.375 -0.320312 25.929688 3.925781 23.046875 6.6875 C 20.160156 9.445312 15.78125 10.828125 9.90625 10.828125 Z M 3.15625 10.828125 "/></g></g></g></svg>